PSF_ID_stride6.mot
nRows=13
nColumns=38

name PSF_ID_stride6.mot
datacolumns 38
datarows 13
range 3.6550000000 3.7150000000
endheader
time	pelvis_tilt_moment	pelvis_list_moment	pelvis_rotation_moment	pelvis_tx_force	pelvis_ty_force	pelvis_tz_force	hip_flexion_r_moment	hip_adduction_r_moment	hip_rotation_r_moment	knee_angle_r_moment	ankle_angle_r_moment	subtalar_angle_r_moment	mtp_angle_r_moment	hip_flexion_l_moment	hip_adduction_l_moment	hip_rotation_l_moment	knee_angle_l_moment	ankle_angle_l_moment	subtalar_angle_l_moment	mtp_angle_l_moment	lumbar_extension_moment	lumbar_bending_moment	lumbar_rotation_moment	arm_flex_r_moment	arm_add_r_moment	arm_rot_r_moment	elbow_flex_r_moment	pro_sup_r_moment	wrist_flex_r_moment	wrist_dev_r_moment	arm_flex_l_moment	arm_add_l_moment	arm_rot_l_moment	elbow_flex_l_moment	pro_sup_l_moment	wrist_flex_l_moment	wrist_dev_l_moment
        3.6550000000	       -2.8854667293	      -63.0449999711	      -23.4588236408	       36.6664717365	      -22.6687386441	      114.9403431241	     -123.4093751207	      -12.1957229058	       -2.6346170218	      -69.3613351075	       -1.5759590958	        0.0131708910	       -0.0733838794	       70.3809722892	      -26.2018263697	       11.5217261047	       24.6721383511	        4.5304251976	       -1.0338128768	        0.2201858936	      -10.2449973626	       -9.0108870790	        4.6718290875	       -0.9131392062	        0.5706093858	        0.6596387783	       -0.6517752087	        0.0367592268	        0.0584396083	        0.0811425256	       -2.2056421079	       -0.4116019743	       -0.2197724538	       -0.8623456015	        0.0020771829	       -0.0470741440	        0.0711391089	
        3.6600000000	       10.9956509780	      -48.3049245756	      -14.4260704479	       23.4215258388	      197.3945383679	      144.8122952901	      -91.9848501909	       -6.0928247866	       -1.0509227909	      -58.7737880243	        0.7378821368	        0.2024662594	        0.0100152620	       61.8658176055	      -17.8367696849	       10.5163133458	       24.5844330164	        4.7956554083	       -1.0379486213	        0.2558249338	       -1.3012348573	      -15.2273446292	        4.4920566504	       -2.0698022919	        0.5488912720	        0.7770580080	       -0.2797661054	        0.0335621559	        0.0786371904	        0.0662918472	       -3.6227614756	       -0.2126566444	        0.0342287685	       -0.5986283521	        0.0014113874	       -0.0176665625	        0.0658899644	
        3.6650000000	       34.1879237203	       23.4643303864	       -1.2839354626	        6.9138050713	      328.8798095668	      116.5917621400	      -22.3107896720	      -13.2736707666	        4.4253503777	      -14.3725747880	       18.6915703542	        4.7611120773	        0.1059822455	       55.3142564181	      -11.0672114859	        9.2313232272	       23.6101904184	        5.0120687763	       -1.0285436827	        0.2849397060	       16.3519236041	      -23.2911517786	        4.6625767761	       -3.1784926888	        0.7964920110	        1.0328348432	        0.4913240894	        0.0260619828	        0.1197126190	        0.0148606094	       -5.0242111652	       -0.0876029126	        0.2334549871	        0.0866491376	       -0.0087623480	        0.0165432707	        0.0186156936	
        3.6700000000	       53.7763442381	       57.0304690574	        9.2421111293	      -21.8316438388	      454.7926366180	       90.9136603012	       -8.9055072642	      -24.1734586064	       13.2566846893	       -0.8472668971	       18.6057254415	       10.5793027672	        0.2041209386	       53.0026670276	       -6.3400581441	        7.8107238418	       22.1043276300	        5.1664401360	       -1.0072765335	        0.3055364316	       37.9656127368	      -31.6552333848	        4.9480181360	       -3.9710561699	        1.2128143070	        1.3380781362	        1.5157913610	        0.0147051490	        0.1698843790	       -0.0625331907	       -6.1083490329	        0.0132931191	        0.3714921988	        1.0447321018	       -0.0257530120	        0.0507045324	       -0.0589723772	
        3.6750000000	       67.6228287381	       64.3646908707	       18.7897584405	      -40.6876824305	      484.2855617519	       59.5561910006	      -13.2934982803	      -37.3035053135	       25.1755401533	        0.7251570054	        7.5046538828	       17.4614549122	        0.2901288377	       53.5463871817	       -3.5752450148	        6.4374011116	       20.9138147181	        5.2111750596	       -0.9733798884	        0.3127975050	       55.8742764566	      -37.1512032703	        5.0306678051	       -4.1328757792	        1.5294861666	        1.5065286455	        2.4830949045	        0.0017375417	        0.2074447306	       -0.1405593067	       -6.3725476256	        0.1506497664	        0.4726873165	        1.9619967109	       -0.0424346027	        0.0795777804	       -0.1368205776	
        3.6800000000	       72.8894522124	       64.0922650201	       28.7455096158	      -42.6842275450	      432.3008777445	        7.5555865548	      -37.5288996928	      -51.5807582950	       38.8703919375	        0.6005255389	       -9.5488963866	       26.0564651729	        0.3515767007	       57.8871870916	       -2.2226183850	        5.1772324945	       20.5327702021	        5.2031292769	       -0.9245173957	        0.3126639800	       62.8907585883	      -38.6021632601	        4.9724152889	       -3.9473549198	        1.6124490057	        1.5258624792	        3.1044941413	       -0.0106821648	        0.2194430395	       -0.1971634513	       -6.2984799709	        0.4018925950	        0.5711635616	        2.5563724671	       -0.0513737686	        0.1007792444	       -0.1889524560	
        3.6850000000	       67.7314275923	       44.4661133042	       37.1921488204	      -17.2185455848	      248.9894544834	      -41.3583848408	      -74.3810588214	      -60.4925157362	       49.8500891131	       -1.7535941106	      -30.1291565143	       33.9226567630	        0.3812447718	       63.8525992663	       -1.6206482006	        4.0541992544	       21.1667161704	        5.0610541338	       -0.8593273212	        0.2982485747	       62.1027814952	      -34.6912422230	        4.5085054519	       -3.1714336780	        1.3073748679	        1.2568653623	        3.3222604352	       -0.0211614188	        0.2019709202	       -0.2223018687	       -5.4092862569	        0.8462641336	        0.7108830527	        2.7669656704	       -0.0528107905	        0.1149804643	       -0.2079655689	
        3.6900000000	       46.1958853536	       16.6316390655	       42.9233793028	       27.4537108573	        3.1294708448	      -71.8810827878	     -114.0921400922	      -59.6545745145	       53.9536316420	        1.3195428933	      -48.1783839357	       39.8088292376	        0.3723016085	       69.3237998719	       -1.1917356331	        3.0758582263	       22.8808175095	        4.8240970368	       -0.7798749526	        0.2748491543	       50.6518496519	      -25.4733600107	        3.8327977410	       -2.1894511108	        0.5952732049	        0.7617907176	        3.0775685112	       -0.0294559585	        0.1534312763	       -0.2136601217	       -4.2324189089	        1.4978591722	        0.9247530086	        2.5436736910	       -0.0429384772	        0.1250322849	       -0.1880042917	
        3.6950000000	       14.8375484522	      -11.3092990505	       43.9268280965	       77.7130012539	     -238.1297628503	      -75.0609884490	     -147.6191565531	      -55.0673141364	       52.8593280853	        9.1250419063	      -61.0942472442	       42.7780520198	        0.3468168341	       72.1099857973	       -0.6492136974	        2.2609465743	       25.0136625372	        4.5279809230	       -0.6945816052	        0.2471046820	       35.9580177038	      -13.8187238266	        3.3050618152	       -1.1817116567	       -0.2782527914	        0.1931722797	        2.6990716047	       -0.0371437022	        0.0952370248	       -0.1978731892	       -3.0158699510	        2.2383673835	        1.1695425098	        2.2104018495	       -0.0288340802	        0.1343768512	       -0.1577965667	
        3.7000000000	      -20.7398860446	      -31.2788462555	       42.5435602965	      122.0260226615	     -414.4841208939	      -57.4893917279	     -167.8323671750	      -41.9411730888	       44.3035679804	       25.6254640841	      -69.5064191582	       43.5708788661	        0.2923286651	       72.6609233028	        0.0814782699	        1.6075237697	       27.0129929473	        4.2023145973	       -0.6085913331	        0.2190065986	       25.3033703042	       -2.1670364341	        3.1614798983	       -0.2440540641	       -1.0345226796	       -0.2826323594	        2.4880623628	       -0.0450701867	        0.0509072536	       -0.1887586351	       -1.9400689981	        2.9450703006	        1.3727145298	        2.0359501852	       -0.0204799498	        0.1431012352	       -0.1418606571	
        3.7050000000	      -48.8809249468	      -39.3025685884	       39.6708100084	      148.0151881272	     -491.5231850165	      -28.8917731053	     -174.5028093270	      -30.3316927303	       35.3283810166	       47.6461878364	      -75.8739625032	       43.5416908991	        0.2317896526	       70.8948252325	        0.8360586963	        1.0564482238	       28.1721896023	        3.9011458061	       -0.5275775508	        0.1958224321	       21.6829657728	        5.9353763605	        3.7765268316	        0.6123204389	       -1.3922807096	       -0.5093249287	        2.5843722412	       -0.0543361888	        0.0345199257	       -0.2080085944	       -1.0998071225	        3.3838085943	        1.4582797376	        2.1932956490	       -0.0199212649	        0.1487969145	       -0.1574903118	
        3.7100000000	      -61.9245005185	      -31.1295154053	       39.0704273910	      150.8185311857	     -442.1351530572	       -9.7800743473	     -163.8327242324	      -24.0053414471	       31.2032558905	       73.0359673895	      -83.2708399769	       44.2121552413	        0.1740172044	       68.0255656908	        1.4660759686	        0.4914291890	       28.1839354889	        3.6565421731	       -0.4510614534	        0.1802732197	       29.5131545636	        8.3213826726	        5.4791301466	        1.4761336306	       -1.0458252191	       -0.3355583323	        3.3651946785	       -0.0649298437	        0.0687304518	       -0.2760122672	       -0.4746616974	        3.4089629604	        1.2923311055	        2.9958350953	       -0.0399139095	        0.1465994954	       -0.2354595907	
        3.7150000000	      -54.5460075058	      -12.8433497719	       42.1528356371	      132.3231762033	     -298.4239251047	      -17.8633928794	     -142.9344782310	      -26.0131106210	       35.0031786011	       98.3384409804	      -93.3496157692	       46.5919722970	        0.1270346981	       65.2754517239	        1.9572350053	       -0.2605656589	       27.1249373216	        3.4832576016	       -0.3720834877	        0.1755764821	       45.5264829842	        3.9738214252	        8.1760092119	        2.4856590513	       -0.0095266656	        0.2126236751	        4.6908422895	       -0.0755307206	        0.1472211515	       -0.3847052979	        0.0495299162	        2.9901107086	        0.8593439210	        4.3089529653	       -0.0773813943	        0.1324677061	       -0.3645896052	
